<svg xmlns="http://www.w3.org/2000/svg" width="2099.928" height="665.803" viewBox="0 0 2099.928 665.803">
  <g id="Group_28" data-name="Group 28" transform="translate(313.064 -513.931) rotate(20)">
    <path id="Path_27" data-name="Path 27" d="M0,0C15.318,1.472,34.79,3.067,56.142,4.223c11.852.646,24.738,1.152,37.486,1.37,98.646,1.672,133.227,44.952,133.227,44.952" transform="translate(1239.714 145.961) rotate(120)" fill="none" stroke="rgba(233,255,208,0.7)" stroke-width="7"/>
    <path id="Path_28" data-name="Path 28" d="M8.546,91.644c-.724-.237,5.994-10.048,1.741-9.874-1.992.04-22.535,10.151-1.741,9.874,79.3-1.06,209.335-93.4,209.335-93.4" transform="matrix(0.174, 0.985, -0.985, 0.174, 1328.255, 117.512)" fill="none" stroke="rgba(233,255,208,0.7)" stroke-width="7"/>
    <path id="Path_29" data-name="Path 29" d="M.04,1.482,25.9,1.67l67.8.492,96.212.7" transform="translate(1247.823 156.569) rotate(110)" fill="none" stroke="rgba(233,255,208,0.7)" stroke-width="7"/>
    <path id="Path_30" data-name="Path 30" d="M.02,0C-.532.04,10.526.38,27.958.731c19.138.385,46.574.783,73.256.733,77.218-.145,103.929,9.079,103.929,9.079" transform="matrix(0.174, 0.985, -0.985, 0.174, 1239.928, 139.476)" fill="none" stroke="rgba(233,255,208,0.7)" stroke-width="7"/>
    <ellipse id="Ellipse_5" data-name="Ellipse 5" cx="59.818" cy="61.372" rx="59.818" ry="61.372" transform="translate(1030.322 298.561)" fill="rgba(217,208,255,0.7)"/>
    <ellipse id="Ellipse_6" data-name="Ellipse 6" cx="59.818" cy="61.372" rx="59.818" ry="61.372" transform="translate(1122.35 298.561)" fill="rgba(217,208,255,0.7)"/>
    <ellipse id="Ellipse_7" data-name="Ellipse 7" cx="59.818" cy="61.372" rx="59.818" ry="61.372" transform="translate(1210.433 304.828)" fill="rgba(217,208,255,0.7)"/>
    <ellipse id="Ellipse_8" data-name="Ellipse 8" cx="59.818" cy="61.372" rx="59.818" ry="61.372" transform="translate(1310.087 298.561)" fill="rgba(217,208,255,0.7)"/>
    <ellipse id="Ellipse_9" data-name="Ellipse 9" cx="59.818" cy="61.372" rx="59.818" ry="61.372" transform="translate(1074.495 393.644)" fill="rgba(217,208,255,0.7)"/>
    <ellipse id="Ellipse_10" data-name="Ellipse 10" cx="59.818" cy="61.372" rx="59.818" ry="61.372" transform="translate(1153.639 393.644)" fill="rgba(217,208,255,0.7)"/>
    <ellipse id="Ellipse_11" data-name="Ellipse 11" cx="59.818" cy="61.372" rx="59.818" ry="61.372" transform="translate(1258.551 393.644)" fill="rgba(217,208,255,0.7)"/>
    <ellipse id="Ellipse_12" data-name="Ellipse 12" cx="59.818" cy="61.372" rx="59.818" ry="61.372" transform="translate(1126.031 481.811)" fill="rgba(217,208,255,0.7)"/>
    <ellipse id="Ellipse_13" data-name="Ellipse 13" cx="59.818" cy="61.372" rx="59.818" ry="61.372" transform="translate(1216.218 481.811)" fill="rgba(217,208,255,0.7)"/>
    <ellipse id="Ellipse_14" data-name="Ellipse 14" cx="59.818" cy="61.372" rx="59.818" ry="61.372" transform="translate(1168.364 576.894)" fill="rgba(217,208,255,0.7)"/>
  </g>
  <g id="Group_18" data-name="Group 18" transform="translate(18.231 -389.236) rotate(20)">
    <path id="Rectangle_13" data-name="Rectangle 13" d="M142.163,0H272.971A191.919,191.919,0,0,1,464.89,191.919v42.649A120.838,120.838,0,0,1,344.052,355.406H213.244A213.244,213.244,0,0,1,0,142.163v0A142.163,142.163,0,0,1,142.163,0Z" transform="translate(257 404)" fill="rgba(255,248,208,0.7)"/>
    <ellipse id="Ellipse_3" data-name="Ellipse 3" cx="75.924" cy="71.967" rx="75.924" ry="71.967" transform="translate(452.067 542.398)" fill="#fadab5"/>
  </g>
  <g id="Group_17" data-name="Group 17" transform="matrix(0.985, 0.174, -0.174, 0.985, 606.619, -290.303)">
    <rect id="Rectangle_14" data-name="Rectangle 14" width="33.213" height="126.054" rx="16.607" transform="translate(991.079 241.905)" fill="rgba(233,255,208,0.7)"/>
    <path id="Path_31" data-name="Path 31" d="M14.732.166c8.876.812,16.73,7.1,17.542,14.038L44.735,120.728c.812,6.941-5.725,11.909-14.6,11.1s-16.73-7.1-17.542-14.038L.131,11.263C-.681,4.322,5.856-.646,14.732.166Z" transform="translate(935.284 250.904) rotate(-20)" fill="rgba(233,255,208,0.7)"/>
    <path id="Path_32" data-name="Path 32" d="M29.318-.1c8.876-.812,15.413,4.157,14.6,11.1L31.459,117.519c-.812,6.941-8.666,13.226-17.542,14.038S-1.5,127.4-.685,120.459L11.777,13.935C12.588,6.994,20.442.709,29.318-.1Z" transform="translate(1038.602 236.09) rotate(20)" fill="rgba(233,255,208,0.7)"/>
    <path id="Polygon_6" data-name="Polygon 6" d="M81.07,63.366c3.576-15.5,25.656-15.5,29.232,0l76.832,333.095a15,15,0,0,1-14.616,18.371H18.854A15,15,0,0,1,4.238,396.461Z" transform="translate(1103.372 748.414) rotate(180)" fill="rgba(255,233,208,0.7)"/>
  </g>
  <g id="Group_19" data-name="Group 19" transform="translate(257.303 -454.508) rotate(20)">
    <path id="Rectangle_17" data-name="Rectangle 17" d="M118.556,0h0A118.556,118.556,0,0,1,237.111,118.556V310.813A165.978,165.978,0,0,1,71.133,476.791h0A71.133,71.133,0,0,1,0,405.657v-287.1A118.556,118.556,0,0,1,118.556,0Z" transform="translate(697.299 335.195)" fill="rgba(217,208,255,0.7)"/>
    <path id="Path_35" data-name="Path 35" d="M36.934-.984C55.386-1.993,69.528,10.2,68.519,26.249L63.8,101.318c-1.008,16.049-16.785,29.877-35.237,30.885S-4.029,121.019-3.02,104.97L1.7,29.9C2.705,13.852,18.481.024,36.934-.984Z" transform="translate(732.524 319.929) rotate(20)" fill="rgba(233,255,208,0.7)"/>
    <path id="Path_36" data-name="Path 36" d="M35-.252c18.8-.272,33.812,12.239,33.539,27.944l-1.274,73.464c-.272,15.706-15.73,28.658-34.526,28.931S-1.077,117.848-.8,102.143L.47,28.679C.742,12.973,16.2.02,35-.252Z" transform="matrix(0.996, 0.087, -0.087, 0.996, 771.51, 325.161)" fill="rgba(233,255,208,0.7)"/>
    <path id="Path_37" data-name="Path 37" d="M33.763.246c18.8.272,34.254,13.225,34.526,28.931l1.274,73.464c.272,15.706-14.744,28.217-33.539,27.944S1.77,117.36,1.5,101.654L.223,28.19C-.049,12.484,14.967-.027,33.763.246Z" transform="matrix(0.996, -0.087, 0.087, 0.996, 809.635, 330.658)" fill="rgba(233,255,208,0.7)"/>
    <path id="Path_38" data-name="Path 38" d="M32.413.892C50.866,1.9,66.642,15.728,67.651,31.777l4.717,75.069c1.008,16.049-13.133,28.242-31.585,27.233S6.554,119.243,5.545,103.194L.828,28.125C-.18,12.076,13.961-.117,32.413.892Z" transform="translate(833.378 341.885) rotate(-20)" fill="rgba(233,255,208,0.7)"/>
  </g>
  <g id="Group_25" data-name="Group 25" transform="matrix(0.966, -0.259, 0.259, 0.966, -611.999, -263.531)">
    <g id="Group_23" data-name="Group 23" transform="translate(926.599 556)">
      <path id="Path_21" data-name="Path 21" d="M21.414-.324C33.733-.177,43.843,10.907,44,24.434l2.336,207.6c.152,13.527-9.711,24.374-22.03,24.227S1.872,245.035,1.72,231.508L-.615,23.9C-.768,10.376,9.1-.471,21.414-.324Z" transform="translate(83.001 0.325)" fill="rgba(233,255,208,0.7)"/>
      <path id="Path_22" data-name="Path 22" d="M27.392.128C39.746-.11,49.573,10.508,49.34,23.843L45.775,228.5c-.232,13.335-10.435,24.338-22.789,24.575S.806,242.7,1.038,229.364L4.6,24.7C4.836,11.368,15.039.365,27.392.128Z" transform="translate(0 21.741) rotate(-20)" fill="rgba(233,255,208,0.7)"/>
      <path id="Path_23" data-name="Path 23" d="M20.217-.052C32.1.624,42.281,11.642,42.965,24.558L53.453,222.775c.683,12.915-8.393,22.837-20.273,22.161s-22.065-11.694-22.748-24.61L-.057,22.109C-.74,9.193,8.336-.728,20.217-.052Z" transform="translate(159.359 7.905) rotate(20)" fill="rgba(233,255,208,0.7)"/>
    </g>
    <path id="Path_19" data-name="Path 19" d="M172.39,0C267.6,0,344.78,54.247,344.78,121.165S172.39,337.824,172.39,337.824,0,188.082,0,121.165,77.182,0,172.39,0Z" transform="translate(859.527 741.929)" fill="rgba(255,208,251,0.7)" opacity="0.7"/>
  </g>
  <g id="Group_20" data-name="Group 20" transform="translate(426.15 -113.551) rotate(20)">
    <path id="Path_13" data-name="Path 13" d="M.116,4.688C38.524,39.75,85.723,38.139,130.471,38.693,199.756,39.55,239.62,6.01,239.62,6.01" transform="translate(429.947 315.184) rotate(130)" fill="none" stroke="rgba(233,255,208,0.7)" stroke-width="7"/>
    <path id="Path_14" data-name="Path 14" d="M.116,4.688C38.524,39.75,85.723,38.139,130.471,38.693,199.756,39.55,239.62,6.01,239.62,6.01" transform="translate(429.947 315.184) rotate(130)" fill="none" stroke="rgba(233,255,208,0.7)" stroke-width="7"/>
    <path id="Path_15" data-name="Path 15" d="M1.661,64.8c-1.077-.5,15.1,19.18,59.844,19.734C130.79,85.4,184.2,4.62,184.2,4.62" transform="translate(471.646 356.357) rotate(130)" fill="none" stroke="rgba(233,255,208,0.7)" stroke-width="7"/>
    <path id="Path_33" data-name="Path 33" d="M26.488,23.35c16.468-31.355,63.38-31.557,79.565-.342l21.715,41.881c14.53,28.022-7.1,61.067-40.058,61.209l-43.81.188c-32.962.142-54.29-32.718-39.507-60.867Z" transform="matrix(-0.996, -0.087, 0.087, -0.996, 330.869, 610.391)" fill="rgba(255,209,213,0.7)"/>
    <path id="Path_34" data-name="Path 34" d="M26.7,23.578c16.185-31.215,63.1-31.013,79.565.342L128.36,65.989c14.783,28.148-6.545,61.008-39.507,60.867l-43.81-.188C12.081,126.526-9.545,93.481,4.985,65.459Z" transform="matrix(-0.996, 0.087, -0.087, -0.996, 431.873, 599.389)" fill="rgba(255,209,213,0.7)"/>
  </g>
  <g id="Group_27" data-name="Group 27" transform="matrix(0.914, 0.407, -0.407, 0.914, 993.241, -618.259)">
    <ellipse id="Ellipse_4" data-name="Ellipse 4" cx="91.503" cy="230.407" rx="91.503" ry="230.407" transform="translate(1114.526 311.674)" fill="rgba(255,248,208,0.7)"/>
    <path id="Path_25" data-name="Path 25" d="M348.01,181.739C329.38,112.938,174.1,44.456,91.181,8.662S-.634,51.929-.634,51.929" transform="translate(1182.608 803.831) rotate(-130)" fill="rgba(233,255,208,0.7)"/>
    <path id="Path_26" data-name="Path 26" d="M339.425,4.165C321.451,75.7,171.05,147.057,90.734,184.357S1.7,139.494,1.7,139.494" transform="translate(1086.107 677.758) rotate(-50)" fill="rgba(233,255,208,0.7)"/>
  </g>
  <g id="Group_26" data-name="Group 26" transform="matrix(0.966, -0.259, 0.259, 0.966, -130.258, 289.062)">
    <g id="Group_22" data-name="Group 22" transform="translate(960 107.451)">
      <path id="Path_16" data-name="Path 16" d="M174.134,74.258c95.143,0,170.411-63.11,170.411,143.918S269.278,393.315,174.134,393.315,0,425.2,0,218.176,78.991,74.258,174.134,74.258Z" transform="translate(0 102.132)" fill="rgba(255,209,213,0.7)"/>
      <g id="Group_21" data-name="Group 21" transform="translate(142.606 0) rotate(20)">
        <path id="Path_17" data-name="Path 17" d="M130.105,64.432c-5.752-33.413-14.222-39.293-45.08-56.056S-.041,4.048-.041,4.048" transform="matrix(0.174, 0.985, -0.985, 0.174, 120.244, 42.64)" fill="rgba(233,255,208,0.7)"/>
        <path id="Path_18" data-name="Path 18" d="M160.855,82.647c-9.652-39.459-20.279-46.92-58.613-68.655S.031,3.031.031,3.031" transform="translate(70.608 1.334) rotate(60)" fill="rgba(233,255,208,0.7)"/>
      </g>
    </g>
  </g>
  <g id="Group_30" data-name="Group 30" transform="translate(1320.257 -1290.574) rotate(60)">
    <g id="Group_29" data-name="Group 29" transform="translate(1421.916 640.067)">
      <path id="Path_39" data-name="Path 39" d="M51.509.414l64.385,1.935C180.547,4.292,234.533,58.278,236.475,122.93l1.759,58.532c.971,32.326-24.447,57.744-56.773,56.773l-58.532-1.759C58.278,234.532,4.292,180.546,2.349,115.894L.414,51.509C-.46,22.416,22.416-.46,51.509.414Z" transform="translate(166.177 0) rotate(45)" fill="rgba(255,248,208,0.7)"/>
      <ellipse id="Ellipse_15" data-name="Ellipse 15" cx="24.412" cy="6.632" rx="24.412" ry="6.632" transform="translate(141.765 300.903)" fill="rgba(255,233,208,0.7)"/>
    </g>
  </g>
  <g id="Group_31" data-name="Group 31" transform="translate(-138.329 454.319) rotate(-30)">
    <path id="Path_40" data-name="Path 40" d="M136.688,0c70.961,0,136.688,40.89,136.688,122.729s-136.688,42.5-136.688,42.5S42.977,192.2,10.617,154.876C4.044,147.3,0,136.8,0,122.729,0,40.89,65.727,0,136.688,0Z" transform="translate(1755.086 894.602) rotate(180)" fill="rgba(255,209,213,0.7)"/>
    <path id="Path_41" data-name="Path 41" d="M19.945.246C29.234-.313,36.311,6.6,35.752,15.7L34.126,42.172c-.559,9.092-8.541,16.914-17.83,17.473S-.069,53.286.489,44.194L2.116,17.719C2.674,8.627,10.657.8,19.945.246Z" transform="translate(1605.317 710.796) rotate(40)" fill="rgba(233,255,208,0.7)"/>
    <path id="Path_42" data-name="Path 42" d="M15.065-.112C23.981.424,31.644,7.934,32.18,16.661l1.707,27.795c.536,8.727-6.257,15.367-15.174,14.831S2.135,51.242,1.6,42.515L-.109,14.72C-.645,5.992,6.149-.648,15.065-.112Z" transform="translate(1603.452 733.976) rotate(-40)" fill="rgba(233,255,208,0.7)"/>
    <rect id="Rectangle_20" data-name="Rectangle 20" width="34.022" height="56.337" rx="17.011" transform="translate(1601.386 721.007)" fill="rgba(233,255,208,0.7)"/>
  </g>
  <g id="Group_32" data-name="Group 32" transform="translate(151.274 1308.68) rotate(-53)">
    <rect id="Rectangle_22" data-name="Rectangle 22" width="49" height="149" rx="24.5" transform="translate(1516.525 795.003)" fill="rgba(255,250,222,0.7)"/>
    <path id="Rectangle_21" data-name="Rectangle 21" d="M75,0h44.148a75,75,0,0,1,75,75V284a25,25,0,0,1-25,25H25A25,25,0,0,1,0,284V75A75,75,0,0,1,75,0Z" transform="translate(1447 543)" fill="rgba(255,232,253,0.7)"/>
  </g>
</svg>