<svg id="Hero_Shapes" data-name="Hero Shapes" xmlns="http://www.w3.org/2000/svg" width="2373.157" height="1109.098" viewBox="0 0 2373.157 1109.098">
  <path id="Polygon_5" data-name="Polygon 5" d="M289.083,28.894a25,25,0,0,1,40.834,0L591.14,398.573A25,25,0,0,1,570.723,438H48.277A25,25,0,0,1,27.86,398.573Z" transform="translate(1282.075 799.598) rotate(150)" fill="rgba(255,208,251,0.7)"/>
  <path id="Rectangle_4" data-name="Rectangle 4" d="M51.929,0H419.513a25.964,25.964,0,0,1,25.964,25.964V129.822A181.751,181.751,0,0,1,263.726,311.573h-4.083A259.644,259.644,0,0,1,0,51.929v0A51.929,51.929,0,0,1,51.929,0Z" transform="translate(169.716 763.728) rotate(-30)" fill="rgba(255,233,208,0.7)"/>
  <rect id="Rectangle_5" data-name="Rectangle 5" width="339" height="495" rx="169.5" transform="matrix(0.174, 0.985, -0.985, 0.174, 699.144, 202.424)" fill="rgba(255,248,208,0.7)"/>
  <rect id="Rectangle_1" data-name="Rectangle 1" width="592.079" height="563.112" rx="40" transform="translate(556.005 168.071)" fill="rgba(255,209,213,0.7)"/>
  <circle id="Ellipse_1" data-name="Ellipse 1" cx="128.5" cy="128.5" r="128.5" transform="translate(996.118 138.904)" fill="rgba(255,233,208,0.7)"/>
  <path id="Polygon_1" data-name="Polygon 1" d="M103.005,299.566c25.032-86.721,147.908-86.721,172.94,0l69.822,241.893c16.611,57.546-26.574,114.96-86.47,114.96H119.653c-59.9,0-103.081-57.413-86.47-114.96Z" transform="translate(1216.764 0.184) rotate(30)" fill="rgba(255,248,208,0.7)"/>
  <path id="Polygon_2" data-name="Polygon 2" d="M129.816,77.279c9.59-26.295,46.778-26.295,56.368,0L312.251,422.946a30,30,0,0,1,0,20.558L186.184,789.172c-9.59,26.295-46.778,26.295-56.368,0L3.749,443.5a30,30,0,0,1,0-20.558Z" transform="translate(2265.079) rotate(70)" fill="rgba(208,219,255,0.7)"/>
  <path id="Rectangle_3" data-name="Rectangle 3" d="M26,0H326.814a26,26,0,0,1,26,26V505.588A129.983,129.983,0,0,1,222.828,635.57h0A222.828,222.828,0,0,1,0,412.743V26A26,26,0,0,1,26,0Z" transform="matrix(0.174, 0.985, -0.985, 0.174, 1722.745, 96.91)" fill="rgba(208,239,255,0.7)"/>
  <path id="Rectangle_7" data-name="Rectangle 7" d="M61.638,0h0A440.271,440.271,0,0,1,501.909,440.271v6.594a88.054,88.054,0,0,1-88.054,88.054H220.136A220.136,220.136,0,0,1,0,314.784V61.638A61.638,61.638,0,0,1,61.638,0Z" transform="translate(1631.75 370.235) rotate(90)" fill="rgba(233,255,208,0.7)"/>
  <path id="Polygon_3" data-name="Polygon 3" d="M159.794,30.684a20,20,0,0,1,34.8,0l154.2,271.954a20,20,0,0,1,0,19.73L194.59,594.322a20,20,0,0,1-34.8,0L5.593,322.367a20,20,0,0,1,0-19.73Z" transform="translate(625.005 403.749) rotate(90)" fill="rgba(233,255,208,0.7)"/>
  <path id="Rectangle_8" data-name="Rectangle 8" d="M23.31,0H293.039a23.31,23.31,0,0,1,23.31,23.31V206.1A116.55,116.55,0,0,1,199.8,322.646h0A199.8,199.8,0,0,1,0,122.847V23.31A23.31,23.31,0,0,1,23.31,0Z" transform="translate(185.546 129.603) rotate(20)" fill="rgba(208,239,255,0.7)"/>
  <ellipse id="Ellipse_2" data-name="Ellipse 2" cx="283.5" cy="266.5" rx="283.5" ry="266.5" transform="translate(1768.005 371.184)" fill="rgba(255,209,213,0.7)"/>
  <path id="Polygon_4" data-name="Polygon 4" d="M234.755,38.774a20,20,0,0,1,36.239,0l221.453,473.9a20,20,0,0,1-18.119,28.467H31.422A20,20,0,0,1,13.3,512.672Z" transform="translate(1922.005 953.466) rotate(180)" fill="rgba(255,248,208,0.7)"/>
</svg>
